<?xml version="1.0" encoding="UTF-8" standalone="no"?>
<!DOCTYPE svg PUBLIC "-//W3C//DTD SVG 1.1//EN" "http://www.w3.org/Graphics/SVG/1.1/DTD/svg11.dtd">
<svg width="100%" height="100%" viewBox="0 0 317 645" version="1.1" xmlns="http://www.w3.org/2000/svg" xmlns:xlink="http://www.w3.org/1999/xlink" xml:space="preserve" xmlns:serif="http://www.serif.com/" style="fill-rule:evenodd;clip-rule:evenodd;stroke-linejoin:round;stroke-miterlimit:2;">
    <g>
        <path d="M84.894,621.27C85.167,616.568 86.702,616.954 100.603,564.529C105.896,544.568 158.035,353.302 157.971,352.482C157.827,350.646 156.76,350.918 108.5,350.918C68.302,350.918 66.502,351.189 67.295,349.458C67.753,348.456 77.195,332.805 83.866,320.707C86.999,315.025 87.186,315.205 124.691,250.618C243.32,46.329 243.624,46.531 248.2,37.175C255.061,23.148 248.114,43.126 247.945,43.613C246.42,47.998 190.875,239.573 185.932,256.619C172.682,302.32 170.538,305.053 174.52,305.071C205.698,305.211 261.897,304.666 262.541,305.464C263.685,306.88 204.939,407.897 197.177,423.337C196.516,424.651 145.46,514.804 140.958,522.754C138.116,527.771 118.128,563.066 105.625,585.571C99.204,597.13 91.088,610.887 87.867,617.824C86.988,619.718 86.854,621.18 84.894,621.27Z" style="fill:white;stroke:white;stroke-width:13.33px;"/>
    </g>
</svg>
